<svg width="587" height="126" viewBox="0 0 587 126" fill="none" xmlns="http://www.w3.org/2000/svg">
<rect x="147" width="294" height="126" rx="63" fill="black"/>
<path d="M258.211 36.06C260.531 36.06 262.571 36.34 264.331 36.9C266.091 37.42 267.551 38.16 268.711 39.12C269.871 40.08 270.731 41.22 271.291 42.54C271.891 43.86 272.191 45.32 272.191 46.92C272.191 48.48 271.891 49.92 271.291 51.24C270.731 52.56 269.871 53.7 268.711 54.66C267.551 55.62 266.091 56.38 264.331 56.94C262.571 57.46 260.531 57.72 258.211 57.72C255.851 57.72 253.791 57.46 252.031 56.94C250.311 56.38 248.871 55.62 247.711 54.66C246.551 53.7 245.671 52.56 245.071 51.24C244.511 49.92 244.231 48.48 244.231 46.92C244.231 45.32 244.511 43.86 245.071 42.54C245.671 41.22 246.551 40.08 247.711 39.12C248.871 38.16 250.311 37.42 252.031 36.9C253.791 36.34 255.851 36.06 258.211 36.06ZM258.211 41.04C255.331 41.04 253.231 41.6 251.911 42.72C250.591 43.8 249.931 45.2 249.931 46.92C249.931 48.64 250.591 50.06 251.911 51.18C253.231 52.26 255.331 52.8 258.211 52.8C261.091 52.8 263.191 52.26 264.511 51.18C265.831 50.06 266.491 48.64 266.491 46.92C266.491 45.2 265.831 43.8 264.511 42.72C263.191 41.6 261.091 41.04 258.211 41.04ZM281.671 34.32C282.471 34.32 283.171 34.52 283.771 34.92C284.371 35.32 284.671 35.94 284.671 36.78V51.3H290.491C291.291 51.3 291.851 51.56 292.171 52.08C292.531 52.6 292.711 53.22 292.711 53.94C292.711 54.66 292.531 55.28 292.171 55.8C291.851 56.32 291.291 56.58 290.491 56.58H284.671V73.62C284.671 74.46 284.371 75.08 283.771 75.48C283.171 75.88 282.471 76.08 281.671 76.08C280.911 76.08 280.231 75.88 279.631 75.48C279.031 75.08 278.731 74.46 278.731 73.62V36.78C278.731 35.94 279.031 35.32 279.631 34.92C280.231 34.52 280.911 34.32 281.671 34.32ZM273.391 62.7C274.071 62.62 274.591 62.8 274.951 63.24C275.311 63.68 275.531 64.26 275.611 64.98C275.691 65.66 275.571 66.26 275.251 66.78C274.971 67.3 274.491 67.6 273.811 67.68C269.211 68.08 264.311 68.36 259.111 68.52C253.911 68.68 248.531 68.76 242.971 68.76C242.251 68.76 241.711 68.52 241.351 68.04C241.031 67.52 240.871 66.92 240.871 66.24C240.871 65.56 241.031 64.98 241.351 64.5C241.711 63.98 242.251 63.72 242.971 63.72C245.011 63.72 247.051 63.72 249.091 63.72C251.131 63.72 253.211 63.7 255.331 63.66V54.06H261.211V63.48C263.211 63.4 265.211 63.3 267.211 63.18C269.251 63.06 271.311 62.9 273.391 62.7ZM252.031 72.12C252.791 72.12 253.471 72.32 254.071 72.72C254.711 73.12 255.031 73.76 255.031 74.64V82.68C255.031 83.12 255.111 83.44 255.271 83.64C255.471 83.84 255.811 83.94 256.291 83.94H284.011C284.731 83.94 285.251 84.18 285.571 84.66C285.931 85.18 286.111 85.78 286.111 86.46C286.111 87.14 285.931 87.74 285.571 88.26C285.251 88.78 284.731 89.04 284.011 89.04H253.591C251.831 89.04 250.611 88.72 249.931 88.08C249.291 87.44 248.971 86.26 248.971 84.54V74.64C248.971 73.76 249.271 73.12 249.871 72.72C250.511 72.32 251.231 72.12 252.031 72.12ZM334.3 37.44C336.06 37.44 337.26 37.76 337.9 38.4C338.58 39.04 338.92 40.22 338.92 41.94V49.8C338.92 51.48 338.58 52.64 337.9 53.28C337.26 53.92 336.06 54.24 334.3 54.24H309.76C308.92 54.24 308.5 54.66 308.5 55.5V59.88C308.5 60.68 308.92 61.08 309.76 61.08H338.14C338.86 61.08 339.38 61.34 339.7 61.86C340.06 62.38 340.24 62.98 340.24 63.66C340.24 64.34 340.06 64.94 339.7 65.46C339.38 65.94 338.86 66.18 338.14 66.18H307.24C305.48 66.18 304.26 65.86 303.58 65.22C302.94 64.58 302.62 63.4 302.62 61.68V53.82C302.62 52.1 302.94 50.94 303.58 50.34C304.26 49.7 305.48 49.38 307.24 49.38H331.78C332.62 49.38 333.04 48.96 333.04 48.12V43.8C333.04 42.96 332.62 42.54 331.78 42.54H304.6C303.88 42.54 303.34 42.3 302.98 41.82C302.66 41.3 302.5 40.7 302.5 40.02C302.5 39.34 302.66 38.74 302.98 38.22C303.34 37.7 303.88 37.44 304.6 37.44H334.3ZM315.94 75.9H325.9V63.72H331.54V75.9H343.9C344.62 75.9 345.14 76.14 345.46 76.62C345.82 77.1 346 77.68 346 78.36C346 79.04 345.82 79.64 345.46 80.16C345.14 80.68 344.62 80.94 343.9 80.94H297.7C296.98 80.94 296.44 80.68 296.08 80.16C295.76 79.64 295.6 79.04 295.6 78.36C295.6 77.68 295.76 77.1 296.08 76.62C296.44 76.14 296.98 75.9 297.7 75.9H310.3V63.72H315.94V75.9Z" fill="white"/>
</svg>
