<svg width="422" height="126" viewBox="0 0 422 126" fill="none" xmlns="http://www.w3.org/2000/svg">
<rect width="422" height="126" rx="63" fill="#FED7D8"/>
<path d="M115 37.8456C115.72 37.8506 116.238 38.1142 116.554 38.6364C116.911 39.1589 117.086 39.7802 117.081 40.5001C117.077 41.1801 116.892 41.7789 116.529 42.2963C116.205 42.7741 115.684 43.0105 114.964 43.0054L98.1642 42.8884C97.3243 42.8825 96.9013 43.2996 96.8955 44.1395L96.7475 65.379C96.7416 66.219 97.1587 66.6419 97.9986 66.6478C101.959 66.6754 105.639 66.601 109.04 66.4247C112.442 66.2084 115.764 65.8916 119.007 65.4742C119.688 65.3989 120.227 65.5827 120.624 66.0254C121.06 66.4685 121.317 67.0303 121.392 67.7108C121.467 68.4314 121.362 69.0907 121.078 69.6887C120.834 70.247 120.372 70.5638 119.691 70.6391C118.29 70.8293 116.769 70.9987 115.128 71.1473C113.527 71.2961 111.746 71.4237 109.785 71.53C107.824 71.6364 105.643 71.7212 103.243 71.7845C100.883 71.808 98.2427 71.8096 95.3227 71.7893C93.5628 71.777 92.345 71.4485 91.6695 70.8038C91.034 70.1593 90.7222 68.9771 90.7342 67.2572L90.909 42.1778C90.921 40.4578 91.2492 39.2801 91.8937 38.6445C92.5781 38.0093 93.8003 37.6978 95.5603 37.7101L115 37.8456ZM128.407 33.9189C129.207 33.9245 129.906 34.1294 130.503 34.5335C131.1 34.9377 131.396 35.5798 131.39 36.4598L131.281 52.0594L137.881 52.1054C138.681 52.111 139.239 52.3749 139.555 52.8971C139.912 53.3796 140.088 53.9808 140.083 54.7008C140.078 55.4208 139.894 56.0395 139.53 56.557C139.206 57.0747 138.645 57.3308 137.845 57.3253L131.245 57.2793L131.064 83.2586C131.058 84.1386 130.753 84.7765 130.15 85.1723C129.548 85.5681 128.846 85.7632 128.046 85.7577C127.246 85.7521 126.548 85.5472 125.95 85.143C125.353 84.7389 125.058 84.0968 125.064 83.2168L125.39 36.4179C125.396 35.538 125.701 34.9001 126.303 34.5043C126.906 34.1085 127.608 33.9133 128.407 33.9189ZM160.977 36.906C161.777 36.9116 162.475 37.1164 163.073 37.5206C163.71 37.9251 164.025 38.5673 164.019 39.4472L163.956 48.507C163.947 49.787 164.019 50.9475 164.172 51.9886C164.325 52.9897 164.598 53.9516 164.992 54.8744C165.385 55.7972 165.879 56.7006 166.473 57.5848C167.067 58.469 167.82 59.3942 168.734 60.3606C169.925 61.6489 171.096 62.8971 172.248 64.1052C173.439 65.2735 174.552 66.3413 175.585 67.3085C176.182 67.8327 176.417 68.4544 176.292 69.1735C176.207 69.8929 175.923 70.511 175.439 71.0276C174.996 71.5045 174.394 71.8003 173.633 71.915C172.912 72.03 172.274 71.8256 171.717 71.3017C169.889 69.5689 167.844 67.4946 165.581 65.0788C164.707 64.1926 163.972 63.4075 163.377 62.7233C162.822 62.0395 162.366 61.4563 162.009 60.9738C161.653 60.4513 161.376 60.0093 161.178 59.6479C161.021 59.2468 160.924 58.8861 160.886 58.5659L160.826 58.5655C160.743 58.9249 160.601 59.3039 160.398 59.7025C160.235 60.1014 159.972 60.5596 159.608 61.077C159.245 61.5545 158.781 62.1313 158.216 62.8074C157.652 63.4835 156.926 64.2584 156.04 65.1323C154.872 66.3241 153.724 67.4762 152.596 68.5883C151.468 69.6605 150.26 70.7921 148.972 71.9832C148.328 72.5387 147.647 72.7339 146.928 72.5689C146.209 72.3639 145.632 71.9999 145.196 71.4768C144.719 70.9135 144.464 70.2917 144.428 69.6114C144.393 68.9312 144.658 68.313 145.221 67.7569C146.59 66.4864 147.919 65.2357 149.208 64.0046C150.496 62.7736 151.745 61.5222 152.954 60.2506C153.841 59.2968 154.587 58.382 155.193 57.5062C155.839 56.6307 156.346 55.7342 156.712 54.8167C157.118 53.8995 157.405 52.9415 157.572 51.9426C157.739 50.9038 157.827 49.7443 157.836 48.4644L157.899 39.4046C157.905 38.5246 158.21 37.8867 158.813 37.4909C159.455 37.0954 160.177 36.9004 160.977 36.906ZM185.535 34.3171C186.335 34.3227 187.034 34.5275 187.631 34.9317C188.268 35.3362 188.584 35.9784 188.578 36.8583L188.252 83.6572C188.246 84.5372 187.921 85.1749 187.278 85.5705C186.676 85.9663 185.974 86.1614 185.174 86.1558C184.414 86.1505 183.716 85.9457 183.078 85.5412C182.481 85.137 182.186 84.495 182.192 83.615L182.518 36.8161C182.524 35.9361 182.829 35.2982 183.431 34.9024C184.074 34.5069 184.775 34.3118 185.535 34.3171ZM262.5 38.2136C263.22 38.2186 263.738 38.4822 264.054 39.0044C264.41 39.5269 264.586 40.1282 264.582 40.8082C264.577 41.4881 264.393 42.0869 264.029 42.6043C263.706 43.0821 263.184 43.3185 262.464 43.3135L257.304 43.2775L257.282 46.5174C257.274 47.6374 257.307 48.6376 257.381 49.5182C257.495 50.359 257.649 51.1401 257.844 51.8615C258.08 52.5431 258.375 53.1852 258.731 53.7877C259.087 54.3902 259.542 55.0134 260.098 55.6573C260.852 56.5025 261.566 57.3075 262.241 58.0723C262.916 58.797 263.651 59.5821 264.445 60.4277C265.001 61.0316 265.216 61.6531 265.092 62.2922C265.007 62.9317 264.743 63.5098 264.3 64.0268C263.897 64.464 263.335 64.74 262.614 64.855C261.933 64.9703 261.275 64.7257 260.639 64.1212C259.964 63.4365 259.328 62.7721 258.733 62.1279C258.177 61.484 257.582 60.7999 256.947 60.0754C256.153 59.1499 255.559 58.3457 255.164 57.6629C254.769 56.9402 254.514 56.2584 254.398 55.6175L254.338 55.6171C254.129 56.9357 253.379 58.4105 252.087 60.0415C251.522 60.8376 250.957 61.5537 250.392 62.1898C249.868 62.7861 249.324 63.4024 248.759 64.0384C247.47 65.3495 246.15 65.3403 244.799 64.0108C244.244 63.367 243.708 62.7432 243.192 62.1396C242.677 61.496 242.122 60.7721 241.527 59.9679C240.22 58.1988 239.49 56.7137 239.338 55.5126L239.278 55.5122C239.194 56.1516 238.949 56.8299 238.544 57.5471C238.179 58.2646 237.574 59.0804 236.727 59.9945C236.042 60.7097 235.377 61.3851 234.733 62.0206C234.129 62.6564 233.424 63.3715 232.618 64.166C232.014 64.7618 231.352 64.9971 230.633 64.8721C229.954 64.7474 229.396 64.4435 228.959 63.9604C228.523 63.4774 228.247 62.9155 228.131 62.2746C228.056 61.5941 228.3 60.9558 228.864 60.3597C229.831 59.4064 230.657 58.5721 231.342 57.8569C232.067 57.1019 232.813 56.3071 233.579 55.4724C234.143 54.8364 234.607 54.2196 234.972 53.6221C235.376 53.0249 235.68 52.387 235.885 51.7084C236.13 50.9901 236.295 50.2112 236.381 49.3718C236.507 48.4927 236.574 47.4931 236.582 46.3731L236.605 43.1332L231.445 43.0973C230.685 43.092 230.126 42.8481 229.77 42.3656C229.453 41.8434 229.298 41.2423 229.302 40.5623C229.307 39.8823 229.471 39.2834 229.795 38.7657C230.159 38.2482 230.72 37.9921 231.48 37.9974L262.5 38.2136ZM242.162 46.412C242.155 47.452 242.168 48.3521 242.203 49.1124C242.238 49.8327 242.314 50.4732 242.43 51.034C242.546 51.5948 242.702 52.1359 242.898 52.6573C243.095 53.1387 243.351 53.6605 243.668 54.2227C243.944 54.7447 244.26 55.2869 244.616 55.8494C244.972 56.4119 245.388 56.9748 245.864 57.5381C246.261 58.1009 246.579 58.3831 246.819 58.3848C247.099 58.3867 247.441 58.1091 247.844 57.5519C248.289 56.955 248.692 56.3978 249.056 55.8803C249.46 55.3231 249.804 54.7855 250.087 54.2675C250.371 53.7094 250.615 53.1911 250.818 52.7125C251.022 52.1939 251.186 51.6551 251.31 51.0959C251.433 50.5368 251.518 49.8973 251.563 49.1776C251.608 48.4179 251.634 47.5181 251.642 46.4781L251.664 43.2382L242.185 43.1721L242.162 46.412ZM271.763 34.9181C272.523 34.9234 273.181 35.128 273.739 35.5318C274.336 35.936 274.632 36.5381 274.626 37.3381L274.434 64.9374C274.428 65.7774 274.123 66.3953 273.521 66.7911C272.958 67.1872 272.297 67.3826 271.537 67.3773C270.817 67.3723 270.178 67.1678 269.621 66.7639C269.064 66.36 268.788 65.7381 268.794 64.8981L268.986 37.2988C268.992 36.4988 269.276 35.9008 269.839 35.5047C270.401 35.1086 271.043 34.913 271.763 34.9181ZM269.779 69.9451C271.539 69.9574 272.736 70.2857 273.372 70.9302C274.047 71.5749 274.379 72.7572 274.367 74.4772L274.271 88.2168C274.265 89.0968 273.961 89.7347 273.358 90.1305C272.755 90.5263 272.054 90.7215 271.254 90.7159C270.454 90.7103 269.755 90.5054 269.158 90.1013C268.561 89.6971 268.265 89.055 268.272 88.175L268.354 76.2953C268.36 75.4953 267.943 75.0924 267.103 75.0866L238.723 74.8888C237.963 74.8835 237.405 74.6196 237.049 74.0971C236.732 73.5749 236.577 72.9738 236.581 72.2938C236.586 71.6138 236.75 71.0149 237.074 70.4972C237.438 69.9797 237.999 69.7236 238.759 69.7289L269.779 69.9451ZM306.123 39.2376C307.883 39.2499 309.081 39.5783 309.716 40.2227C310.392 40.8674 310.723 42.0498 310.711 43.7697L310.664 50.5496C310.652 52.2295 310.542 53.7488 310.332 55.1074C310.123 56.4259 309.734 57.6833 309.166 58.8793C308.598 60.0754 307.809 61.2499 306.801 62.4029C305.794 63.5159 304.485 64.7069 302.876 65.9757C301.308 67.2048 299.398 68.5515 297.148 70.0158C294.898 71.4802 292.226 73.1416 289.133 75.0001C288.45 75.3954 287.77 75.4706 287.092 75.2259C286.414 74.9411 285.876 74.5174 285.48 73.9546C285.084 73.3918 284.889 72.7305 284.894 71.9705C284.94 71.2108 285.304 70.6133 285.987 70.1781C288.839 68.4779 291.269 66.9948 293.278 65.7288C295.327 64.423 297.035 63.2549 298.402 62.2244C299.77 61.1539 300.857 60.1814 301.663 59.307C302.509 58.3929 303.156 57.4974 303.602 56.6205C304.048 55.7036 304.335 54.7456 304.462 53.7464C304.589 52.7073 304.657 51.5477 304.666 50.2678L304.698 45.6479C304.701 45.2079 304.603 44.9072 304.404 44.7458C304.246 44.5447 303.927 44.4425 303.447 44.4391L287.847 44.3304C287.087 44.3251 286.529 44.0612 286.172 43.5387C285.856 43.0165 285.7 42.4154 285.705 41.7354C285.71 41.0154 285.874 40.3965 286.198 39.8788C286.562 39.3613 287.123 39.1052 287.883 39.1105L306.123 39.2376ZM324.751 35.2874C325.551 35.2929 326.249 35.4978 326.847 35.902C327.484 36.3064 327.799 36.9487 327.793 37.8286L327.467 84.6275C327.461 85.5075 327.136 86.1452 326.494 86.5408C325.891 86.9366 325.19 87.1317 324.39 87.1261C323.63 87.1208 322.931 86.9159 322.294 86.5115C321.697 86.1073 321.401 85.4653 321.407 84.5853L321.733 37.7864C321.739 36.9064 322.044 36.2685 322.647 35.8727C323.289 35.4772 323.991 35.2821 324.751 35.2874Z" fill="black"/>
</svg>
